<svg height="512" viewBox="0 0 60 60" width="512" xmlns="http://www.w3.org/2000/svg"><g id="Page-1" fill="none" fill-rule="evenodd"><g id="034---HTML-Code-Lines"><path id="Path" d="m59 13v41c0 2.7614237-2.2385763 5-5 5h-48c-1.32608245 0-2.59785201-.5267842-3.53553391-1.4644661-.93768189-.9376819-1.46446609-2.2094515-1.46446609-3.5355339v-41z" fill="#f5f5f5"/><path id="Path" d="m56 13v41c0 2.7614237-2.2385763 5-5 5h3c2.7614237 0 5-2.2385763 5-5v-41z" fill="#cfd8dc"/><path id="Path" d="m59 6v7h-58v-7c0-2.76142375 2.23857625-5 5-5h48c1.3260824 0 2.597852.5267842 3.5355339 1.46446609.9376819.9376819 1.4644661 2.20945146 1.4644661 3.53553391z" fill="#02a9f4"/><path id="Path" d="m54 1h-3c1.3260824 0 2.597852.5267842 3.5355339 1.46446609.9376819.9376819 1.4644661 2.20945146 1.4644661 3.53553391v7h3v-7c0-1.32608245-.5267842-2.59785201-1.4644661-3.53553391-.9376819-.93768189-2.2094515-1.46446609-3.5355339-1.46446609z" fill="#0377bc"/><circle id="Oval" cx="7" cy="7" fill="#a4c400" r="2"/><circle id="Oval" cx="15" cy="7" fill="#ffdc00" r="2"/><circle id="Oval" cx="23" cy="7" fill="#ef314c" r="2"/><path id="Path" d="m53 9c1.1045695 0 2-.8954305 2-2s-.8954305-2-2-2h-10c-1.1045695 0-2 .8954305-2 2s.8954305 2 2 2z" fill="#0377bc"/><g fill="#000"><path id="Shape" d="m54 0h-48c-3.31233757.00330738-5.99669262 2.68766243-6 6v48c.00330738 3.3123376 2.68766243 5.9966926 6 6h48c3.3123376-.0033074 5.9966926-2.6876624 6-6v-48c-.0033074-3.31233757-2.6876624-5.99669262-6-6zm-48 2h48c2.209139 0 4 1.790861 4 4v6h-56v-6c0-2.209139 1.790861-4 4-4zm48 56h-48c-2.209139 0-4-1.790861-4-4v-40h56v40c0 2.209139-1.790861 4-4 4z" fill-rule="nonzero"/><path id="Shape" d="m7 10c1.65685425 0 3-1.34314575 3-3s-1.34314575-3-3-3-3 1.34314575-3 3 1.34314575 3 3 3zm0-4c.55228475 0 1 .44771525 1 1s-.44771525 1-1 1-1-.44771525-1-1 .44771525-1 1-1z" fill-rule="nonzero"/><path id="Shape" d="m15 10c1.6568542 0 3-1.34314575 3-3s-1.3431458-3-3-3-3 1.34314575-3 3 1.3431458 3 3 3zm0-4c.5522847 0 1 .44771525 1 1s-.4477153 1-1 1-1-.44771525-1-1 .4477153-1 1-1z" fill-rule="nonzero"/><path id="Shape" d="m23 10c1.6568542 0 3-1.34314575 3-3s-1.3431458-3-3-3-3 1.34314575-3 3 1.3431458 3 3 3zm0-4c.5522847 0 1 .44771525 1 1s-.4477153 1-1 1-1-.44771525-1-1 .4477153-1 1-1z" fill-rule="nonzero"/><path id="Shape" d="m43 10h10c1.6568542-.00000002 3-1.34314577 3-3s-1.3431458-2.99999998-3-3h-10c-1.6568542.00000002-3 1.34314577-3 3s1.3431458 2.99999998 3 3zm0-4h10c.5522847 0 1 .44771525 1 1s-.4477153 1-1 1h-10c-.5522847 0-1-.44771525-1-1s.4477153-1 1-1z" fill-rule="nonzero"/><path id="Path" d="m14 19h9c.5522847 0 1-.4477153 1-1s-.4477153-1-1-1h-9c-.5522847 0-1 .4477153-1 1s.4477153 1 1 1z"/><path id="Path" d="m14 24h14c.5522847 0 1-.4477153 1-1s-.4477153-1-1-1h-14c-.5522847 0-1 .4477153-1 1s.4477153 1 1 1z"/><path id="Path" d="m14 29h9c.5522847 0 1-.4477153 1-1s-.4477153-1-1-1h-9c-.5522847 0-1 .4477153-1 1s.4477153 1 1 1z"/><path id="Path" d="m14 49h7c.5522847 0 1-.4477153 1-1s-.4477153-1-1-1h-7c-.5522847 0-1 .4477153-1 1s.4477153 1 1 1z"/><path id="Path" d="m32 24h3c.5522847 0 1-.4477153 1-1s-.4477153-1-1-1h-3c-.5522847 0-1 .4477153-1 1s.4477153 1 1 1z"/><path id="Path" d="m39 24h8c.5522847 0 1-.4477153 1-1s-.4477153-1-1-1h-8c-.5522847 0-1 .4477153-1 1s.4477153 1 1 1z"/><path id="Path" d="m51 24h1c.5522847 0 1-.4477153 1-1s-.4477153-1-1-1h-1c-.5522847 0-1 .4477153-1 1s.4477153 1 1 1z"/><path id="Path" d="m45 29c.5522847 0 1-.4477153 1-1s-.4477153-1-1-1h-1c-.5522847 0-1 .4477153-1 1s.4477153 1 1 1z"/><path id="Path" d="m40 27h-13c-.5522847 0-1 .4477153-1 1s.4477153 1 1 1h13c.5522847 0 1-.4477153 1-1s-.4477153-1-1-1z"/><path id="Path" d="m43 32c-.5522847 0-1 .4477153-1 1s.4477153 1 1 1h10c.5522847 0 1-.4477153 1-1s-.4477153-1-1-1z"/><path id="Path" d="m47 37h-4c-.5522847 0-1 .4477153-1 1s.4477153 1 1 1h4c.5522847 0 1-.4477153 1-1s-.4477153-1-1-1z"/><path id="Path" d="m47 42h-3c-.5522847 0-1 .4477153-1 1s.4477153 1 1 1h3c.5522847 0 1-.4477153 1-1s-.4477153-1-1-1z"/><path id="Path" d="m47 47h-3c-.5522847 0-1 .4477153-1 1s.4477153 1 1 1h3c.5522847 0 1-.4477153 1-1s-.4477153-1-1-1z"/><path id="Path" d="m25 49h15c.5522847 0 1-.4477153 1-1s-.4477153-1-1-1h-15c-.5522847 0-1 .4477153-1 1s.4477153 1 1 1z"/><path id="Path" d="m17 52h-3c-.5522847 0-1 .4477153-1 1s.4477153 1 1 1h3c.5522847 0 1-.4477153 1-1s-.4477153-1-1-1z"/><path id="Path" d="m28 52h-7c-.5522847 0-1 .4477153-1 1s.4477153 1 1 1h7c.5522847 0 1-.4477153 1-1s-.4477153-1-1-1z"/><path id="Path" d="m45 52h-13c-.5522847 0-1 .4477153-1 1s.4477153 1 1 1h13c.5522847 0 1-.4477153 1-1s-.4477153-1-1-1z"/><path id="Path" d="m14 43c.5522847 0 1-.4477153 1-1v-3h2v3c0 .5522847.4477153 1 1 1s1-.4477153 1-1v-8c0-.5522847-.4477153-1-1-1s-1 .4477153-1 1v3h-2v-3c0-.5522847-.4477153-1-1-1s-1 .4477153-1 1v8c0 .5522847.4477153 1 1 1z"/><path id="Path" d="m34 43c.5522847 0 1-.4477153 1-1v-8c.0052636-.4682378-.3151034-.8774262-.770926-.9846645-.4558227-.1072382-.9250221.1161943-1.129074.5376645l-1.1 2.211-1.1-2.211c-.2040519-.4214702-.6732513-.6449027-1.129074-.5376645-.4558226.1072383-.7761896.5164267-.770926.9846645v8c0 .5522847.4477153 1 1 1s1-.4477153 1-1v-3.764l.105.211c.187968.3152706.5279475.5083906.895.5083906s.707032-.19312.895-.5083906l.1-.211v3.764c-.0000033.2660851.1060396.5211997.2946588.7088804.1886191.1876808.4442595.29245.7103412.2911196z"/><path id="Path" d="m40 41h-1v-7c0-.5522847-.4477153-1-1-1s-1 .4477153-1 1v8c0 .5522847.4477153 1 1 1h2c.5522847 0 1-.4477153 1-1s-.4477153-1-1-1z"/><path id="Path" d="m24 43c.5522847 0 1-.4477153 1-1v-7h1c.5522847 0 1-.4477153 1-1s-.4477153-1-1-1h-4c-.5522847 0-1 .4477153-1 1s.4477153 1 1 1h1v7c0 .5522847.4477153 1 1 1z"/><path id="Path" d="m10.64 17.232c-.4242059-.3532979-1.05445779-.2960023-1.408.128l-5 6c-.30883346.3707811-.30883346.9092189 0 1.28l5 6c.35748826.4086317.9757262.4573621 1.39282.109784.4170937-.3475782.4806478-.9644685.14318-1.389784l-4.468-5.36 4.466-5.36c.3537779-.4236765.2973827-1.0538706-.126-1.408z"/><path id="Path" d="m50.768 40.36c-.3574883-.4086317-.9757262-.4573621-1.39282-.109784-.4170937.3475782-.4806478.9644685-.14318 1.389784l4.468 5.36-4.466 5.36c-.2390052.2731981-.3111994.6544583-.1886229.9961244.1225766.341666.4206735.5900801.7788424.6490353.3581689.0589551.7201604-.0808074.9457805-.3651597l5-6c.3088335-.3707811.3088335-.9092189 0-1.28z"/></g></g></g></svg>